HIERARCHY
ROOT Hips
{
  OFFSET 5.80788e-005 67.184 3.4734
  CHANNELS 6 Xposition Yposition Zposition Zrotation Xrotation Yrotation
  JOINT Chest
  {
    OFFSET 0 8.7983 -4.7612
    CHANNELS 6 Xposition Yposition Zposition Zrotation Xrotation Yrotation
    JOINT Chest2
    {
      OFFSET 0 8.0291 0.4195
      CHANNELS 6 Xposition Yposition Zposition Zrotation Xrotation Yrotation
      JOINT Chest3
      {
        OFFSET 0 9.9351 -2.2114
        CHANNELS 6 Xposition Yposition Zposition Zrotation Xrotation Yrotation
        JOINT Neck
        {
          OFFSET 0 22.3885 -0.4656
          CHANNELS 6 Xposition Yposition Zposition Zrotation Xrotation Yrotation
          JOINT Head
          {
            OFFSET -0.0001 12.643 3.4389
            CHANNELS 6 Xposition Yposition Zposition Zrotation Xrotation Yrotation
            End Site
            {
              OFFSET 0.0001 17.6655 0.5274
            }
          }
        }
        JOINT LeftCollar
        {
          OFFSET 2.2603 21.606 7.4023
          CHANNELS 6 Xposition Yposition Zposition Zrotation Xrotation Yrotation
          JOINT LeftShoulder
          {
            OFFSET 13.5163 -1.1332 -5.0146
            CHANNELS 6 Xposition Yposition Zposition Zrotation Xrotation Yrotation
            JOINT LeftElbow
            {
              OFFSET -0.0995 -28.05 -0.2431
              CHANNELS 6 Xposition Yposition Zposition Zrotation Xrotation Yrotation
              JOINT LeftWrist
              {
                OFFSET 0.0679 -23.3996 -0.1402
                CHANNELS 6 Xposition Yposition Zposition Zrotation Xrotation Yrotation
                JOINT LeftFinger1
                {
                  OFFSET 0.7932 -9.069 2.5189
                  CHANNELS 6 Xposition Yposition Zposition Zrotation Xrotation Yrotation
                  JOINT LeftFinger11
                  {
                    OFFSET -0.8272 -3.3923 0.5977
                    CHANNELS 6 Xposition Yposition Zposition Zrotation Xrotation Yrotation
                    JOINT LeftFinger12
                    {
                      OFFSET -0.5649 -2.3158 0.4082
                      CHANNELS 6 Xposition Yposition Zposition Zrotation Xrotation Yrotation
                      End Site
                      {
                        OFFSET -0.4919 -1.6479 0.2673
                      }
                    }
                  }
                }
                JOINT LeftFinger2
                {
                  OFFSET 0.9159 -9.2044 0.2193
                  CHANNELS 6 Xposition Yposition Zposition Zrotation Xrotation Yrotation
                  JOINT LeftFinger21
                  {
                    OFFSET 0.0117 -4.1944 -0.0248
                    CHANNELS 6 Xposition Yposition Zposition Zrotation Xrotation Yrotation
                    JOINT LeftFinger22
                    {
                      OFFSET 0.0071 -2.3249 -0.0142
                      CHANNELS 6 Xposition Yposition Zposition Zrotation Xrotation Yrotation
                      End Site
                      {
                        OFFSET -0.1475 -2.0882 0.0028
                      }
                    }
                  }
                }
                JOINT LeftFinger3
                {
                  OFFSET 0.6113 -8.7231 -2.0637
                  CHANNELS 6 Xposition Yposition Zposition Zrotation Xrotation Yrotation
                  JOINT LeftFinger31
                  {
                    OFFSET -0.1927 -3.8059 -0.2383
                    CHANNELS 6 Xposition Yposition Zposition Zrotation Xrotation Yrotation
                    JOINT LeftFinger32
                    {
                      OFFSET -0.1091 -2.1688 -0.1362
                      CHANNELS 6 Xposition Yposition Zposition Zrotation Xrotation Yrotation
                      End Site
                      {
                        OFFSET -0.2358 -1.9176 -0.0906
                      }
                    }
                  }
                }
                JOINT LeftFinger4
                {
                  OFFSET -0.6151 -8.0947 -3.5641
                  CHANNELS 6 Xposition Yposition Zposition Zrotation Xrotation Yrotation
                  JOINT LeftFinger41
                  {
                    OFFSET -0.4882 -2.341 -0.6462
                    CHANNELS 6 Xposition Yposition Zposition Zrotation Xrotation Yrotation
                    JOINT LeftFinger42
                    {
                      OFFSET -0.3575 -1.7167 -0.4742
                      CHANNELS 6 Xposition Yposition Zposition Zrotation Xrotation Yrotation
                      End Site
                      {
                        OFFSET -0.4187 -1.5237 -0.3496
                      }
                    }
                  }
                }
                JOINT LeftFinger0
                {
                  OFFSET -1.42 -1.8761 1.4223
                  CHANNELS 6 Xposition Yposition Zposition Zrotation Xrotation Yrotation
                  JOINT LeftFinger01
                  {
                    OFFSET -1.1471 -3.4929 2.6334
                    CHANNELS 6 Xposition Yposition Zposition Zrotation Xrotation Yrotation
                    JOINT LeftFinger02
                    {
                      OFFSET -0.823 -2.3 1.6571
                      CHANNELS 6 Xposition Yposition Zposition Zrotation Xrotation Yrotation
                      End Site
                      {
                        OFFSET -0.5822 -1.6914 1.1582
                      }
                    }
                  }
                }
              }
            }
          }
        }
        JOINT RightCollar
        {
          OFFSET -2.2603 21.606 7.4023
          CHANNELS 6 Xposition Yposition Zposition Zrotation Xrotation Yrotation
          JOINT RightShoulder
          {
            OFFSET -13.5187 -1.1334 -5.0155
            CHANNELS 6 Xposition Yposition Zposition Zrotation Xrotation Yrotation
            JOINT RightElbow
            {
              OFFSET 0.0994 -28.0499 -0.2431
              CHANNELS 6 Xposition Yposition Zposition Zrotation Xrotation Yrotation
              JOINT RightWrist
              {
                OFFSET -0.0679 -23.3996 -0.1402
                CHANNELS 6 Xposition Yposition Zposition Zrotation Xrotation Yrotation
                JOINT RightFinger1
                {
                  OFFSET -0.7932 -9.0691 2.5189
                  CHANNELS 6 Xposition Yposition Zposition Zrotation Xrotation Yrotation
                  JOINT RightFinger11
                  {
                    OFFSET 0.8272 -3.3923 0.5977
                    CHANNELS 6 Xposition Yposition Zposition Zrotation Xrotation Yrotation
                    JOINT RightFinger12
                    {
                      OFFSET 0.565 -2.3158 0.4082
                      CHANNELS 6 Xposition Yposition Zposition Zrotation Xrotation Yrotation
                      End Site
                      {
                        OFFSET 0.4919 -1.6479 0.2673
                      }
                    }
                  }
                }
                JOINT RightFinger2
                {
                  OFFSET -0.916 -9.2044 0.2193
                  CHANNELS 6 Xposition Yposition Zposition Zrotation Xrotation Yrotation
                  JOINT RightFinger21
                  {
                    OFFSET -0.0117 -4.1944 -0.0248
                    CHANNELS 6 Xposition Yposition Zposition Zrotation Xrotation Yrotation
                    JOINT RightFinger22
                    {
                      OFFSET -0.0071 -2.3249 -0.0142
                      CHANNELS 6 Xposition Yposition Zposition Zrotation Xrotation Yrotation
                      End Site
                      {
                        OFFSET 0.1475 -2.0882 0.0028
                      }
                    }
                  }
                }
                JOINT RightFinger3
                {
                  OFFSET -0.6113 -8.7231 -2.0637
                  CHANNELS 6 Xposition Yposition Zposition Zrotation Xrotation Yrotation
                  JOINT RightFinger31
                  {
                    OFFSET 0.1927 -3.8059 -0.2383
                    CHANNELS 6 Xposition Yposition Zposition Zrotation Xrotation Yrotation
                    JOINT RightFinger32
                    {
                      OFFSET 0.1091 -2.1688 -0.1362
                      CHANNELS 6 Xposition Yposition Zposition Zrotation Xrotation Yrotation
                      End Site
                      {
                        OFFSET 0.2358 -1.9176 -0.0906
                      }
                    }
                  }
                }
                JOINT RightFinger4
                {
                  OFFSET 0.6151 -8.0947 -3.564
                  CHANNELS 6 Xposition Yposition Zposition Zrotation Xrotation Yrotation
                  JOINT RightFinger41
                  {
                    OFFSET 0.4882 -2.341 -0.6462
                    CHANNELS 6 Xposition Yposition Zposition Zrotation Xrotation Yrotation
                    JOINT RightFinger42
                    {
                      OFFSET 0.3574 -1.7166 -0.4742
                      CHANNELS 6 Xposition Yposition Zposition Zrotation Xrotation Yrotation
                      End Site
                      {
                        OFFSET 0.4187 -1.5237 -0.3496
                      }
                    }
                  }
                }
                JOINT RightFinger0
                {
                  OFFSET 1.4199 -1.8761 1.4221
                  CHANNELS 6 Xposition Yposition Zposition Zrotation Xrotation Yrotation
                  JOINT RightFinger01
                  {
                    OFFSET 1.1472 -3.4929 2.6336
                    CHANNELS 6 Xposition Yposition Zposition Zrotation Xrotation Yrotation
                    JOINT RightFinger02
                    {
                      OFFSET 0.8229 -2.3 1.6571
                      CHANNELS 6 Xposition Yposition Zposition Zrotation Xrotation Yrotation
                      End Site
                      {
                        OFFSET 0.5822 -1.6914 1.1582
                      }
                    }
                  }
                }
              }
            }
          }
        }
      }
    }
  }
  JOINT RightHip
  {
    OFFSET -9.412 3.9771 -0.7758
    CHANNELS 6 Xposition Yposition Zposition Zrotation Xrotation Yrotation
    JOINT RightKnee
    {
      OFFSET -0.7531 -40.938 0
      CHANNELS 6 Xposition Yposition Zposition Zrotation Xrotation Yrotation
      JOINT RightAnkle
      {
        OFFSET 0 -40.1986 0
        CHANNELS 6 Xposition Yposition Zposition Zrotation Xrotation Yrotation
        JOINT RightToe
        {
          OFFSET 0 -4.4182 9.239
          CHANNELS 6 Xposition Yposition Zposition Zrotation Xrotation Yrotation
          End Site
          {
            OFFSET 0 0 6.1981
          }
        }
      }
    }
  }
  JOINT LeftHip
  {
    OFFSET 9.4119 3.9773 -0.7758
    CHANNELS 6 Xposition Yposition Zposition Zrotation Xrotation Yrotation
    JOINT LeftKnee
    {
      OFFSET 0.7532 -40.9383 0
      CHANNELS 6 Xposition Yposition Zposition Zrotation Xrotation Yrotation
      JOINT LeftAnkle
      {
        OFFSET 0 -40.1986 0
        CHANNELS 6 Xposition Yposition Zposition Zrotation Xrotation Yrotation
        JOINT LeftToe
        {
          OFFSET 0 -4.4182 9.239
          CHANNELS 6 Xposition Yposition Zposition Zrotation Xrotation Yrotation
          End Site
          {
            OFFSET 0 0 6.1981
          }
        }
      }
    }
  }
}
MOTION
Frames:	4
Frame Time:	0.0333333
5.80788e-005 67.184 3.4734 0 0 -0 0 8.7983 -4.7612 0 0 -0 0 8.0291 0.4195 0 0 -0 0 9.9351 -2.2114 0 0 -0 0 22.3885 -0.4656 0 0 -0 -0.0001 12.643 3.4389 0 0 -0 2.2603 21.606 7.4023 0 0 -12.5014 13.5163 -1.1332 -5.0146 88.1196 14.2451 10.6914 -0.0995 -28.05 -0.2431 -0.00160068 -0.00239207 0.000740045 0.0679 -23.3996 -0.1402 -8.4365e-005 7.00714e-005 -9.52055e-007 0.7932 -9.069 2.5189 9.93923e-017 -1.98785e-016 -1.59028e-015 -0.8272 -3.3923 0.5977 9.93923e-017 -5.96354e-016 -1.59028e-015 -0.5649 -2.3158 0.4082 -9.93923e-017 -5.96354e-016 -1.59028e-015 0.9159 -9.2044 0.2193 9.93923e-017 -1.98785e-016 -1.59028e-015 0.0117 -4.1944 -0.0248 -0.0128176 0.00232552 8.52707e-005 0.0071 -2.3249 -0.0142 9.93923e-017 5.96354e-016 -0 0.6113 -8.7231 -2.0637 9.93923e-017 -1.98785e-016 -1.59028e-015 -0.1927 -3.8059 -0.2383 -0.0160551 0.00299681 0.000857156 -0.1091 -2.1688 -0.1362 -2.48481e-016 0 3.18055e-015 -0.6151 -8.0947 -3.5641 9.93923e-017 -1.98785e-016 -1.59028e-015 -0.4882 -2.341 -0.6462 -0.0125865 0.0031206 0.00282719 -0.3575 -1.7167 -0.4742 0 1.98785e-016 -0 -1.42 -1.8761 1.4223 9.93923e-017 -1.98785e-016 -1.59028e-015 -1.1471 -3.4929 2.6334 9.93923e-017 -5.96354e-016 -1.59028e-015 -0.823 -2.3 1.6571 -9.93923e-017 -5.96354e-016 -1.59028e-015 -2.2603 21.606 7.4023 -0.865644 0.16582 7.03859 -13.5187 -1.1334 -5.0155 -88.0329 10.2057 -10.5567 0.0994 -28.0499 -0.2431 0.0015593 -0.00248883 -0.000788628 -0.0679 -23.3996 -0.1402 7.87605e-005 4.10553e-005 1.24965e-005 -0.7932 -9.0691 2.5189 -3.97569e-016 -7.95139e-016 3.18055e-015 0.8272 -3.3923 0.5977 -1.98785e-016 -3.97569e-016 3.18055e-015 0.565 -2.3158 0.4082 -1.98785e-016 0 3.18055e-015 -0.916 -9.2044 0.2193 -3.97569e-016 -7.95139e-016 3.18055e-015 -0.0117 -4.1944 -0.0248 0.0129473 0.00231697 -8.70038e-005 -0.0071 -2.3249 -0.0142 9.93923e-017 -7.95139e-016 1.59028e-015 -0.6113 -8.7231 -2.0637 -3.97569e-016 -7.95139e-016 3.18055e-015 0.1927 -3.8059 -0.2383 0.0163314 0.00303369 -0.000872333 0.1091 -2.1688 -0.1362 3.97569e-016 7.95139e-016 -3.18055e-015 0.6151 -8.0947 -3.564 -3.97569e-016 -7.95139e-016 3.18055e-015 0.4882 -2.341 -0.6462 0.0145763 0.00367772 -0.00326275 0.3574 -1.7166 -0.4742 9.93923e-017 -3.97569e-016 -0 1.4199 -1.8761 1.4221 -3.97569e-016 -7.95139e-016 3.18055e-015 1.1472 -3.4929 2.6336 -1.98785e-016 -3.97569e-016 3.18055e-015 0.8229 -2.3 1.6571 -1.98785e-016 0 3.18055e-015 -9.412 3.9771 -0.7758 3.42485 1.36937 -0.0640303 -0.7531 -40.938 0 0.000136572 0.69354 0.00145564 1.77636e-015 -40.1986 -1.11022e-016 -3.42573 -2.06297 -0.0607933 8.88178e-016 -4.4182 9.239 -3.19502e-024 0 -1.48106e-024 9.4119 3.9773 -0.7758 -3.42498 1.36123 0.0639712 0.7532 -40.9383 2.22045e-016 -6.769e-005 0.712612 -0.0012277 8.88179e-016 -40.1986 0 3.42582 -2.07388 0.0612819 -8.88178e-016 -4.4182 9.239 2.55305e-023 0 -2.31416e-026 
-8.9444 4.39015 -13.8019 -70.9173 14.8336 -55.4925 0 8.7983 -4.7612 6.27795 4.81837 5.91637 0 8.0291 0.4195 12.0942 10.2327 11.3339 -1.77636e-015 9.9351 -2.2114 12.0942 10.2327 11.3339 8.88178e-016 22.3885 -0.4656 -26.5858 11.4012 3.90956 -0.0001 12.643 3.4389 26.8856 -16.7323 -2.69492 2.2603 21.606 7.4023 43.6834 -15.986 16.7166 13.5163 -1.1332 -5.0146 62.1652 -25.1483 43.6461 -0.0995 -28.05 -0.2431 161.805 -47.111 147.473 0.0679 -23.3996 -0.1402 35.9391 9.67176 3.30159 0.7932 -9.069 2.5189 -1.02049e-005 -5.29151e-006 -3.47965e-006 -0.8272 -3.3923 0.5977 4.77083e-015 6.36111e-015 -3.18055e-015 -0.5649 -2.3158 0.4082 1.00003e-005 3.82143e-006 -3.13131e-007 0.9159 -9.2044 0.2193 -1.02049e-005 -5.29151e-006 -3.47965e-006 0.0117 -4.1944 -0.0248 -0.0128137 0.00233025 8.63595e-005 0.0071 -2.3249 -0.0142 1.59028e-015 -6.36111e-015 -1.59028e-015 0.6113 -8.7231 -2.0637 -1.02049e-005 -5.29151e-006 -3.47965e-006 -0.1927 -3.8059 -0.2383 -0.0159942 0.00298627 0.000857829 -0.1091 -2.1688 -0.1362 4.19653e-007 1.11702e-006 -9.6614e-006 -0.6151 -8.0947 -3.5641 -1.02049e-005 -5.29151e-006 -3.47965e-006 -0.4882 -2.341 -0.6462 -0.0125872 0.00312052 0.002834 -0.3575 -1.7167 -0.4742 7.98887e-006 4.18731e-006 -7.73442e-006 -1.42 -1.8761 1.4223 -1.02049e-005 -5.29151e-006 -3.47965e-006 -1.1471 -3.4929 2.6334 4.77083e-015 6.36111e-015 -3.18055e-015 -0.823 -2.3 1.6571 1.00003e-005 3.82143e-006 -3.13131e-007 -2.2603 21.606 7.4023 5.10533 -7.21321 -4.36434 -13.5187 -1.1334 -5.0155 -78.3217 -10.0812 37.317 0.0994 -28.0499 -0.2431 9.80838 -27.4998 -10.2067 -0.0679 -23.3996 -0.1402 -35.6232 -15.3922 -3.62546 -0.7932 -9.0691 2.5189 -3.57812e-015 0 1.59028e-015 0.8272 -3.3923 0.5977 -2.78299e-015 3.18055e-015 7.95139e-015 0.565 -2.3158 0.4082 1.19271e-015 3.18055e-015 1.59028e-015 -0.916 -9.2044 0.2193 -3.57812e-015 0 1.59028e-015 -0.0117 -4.1944 -0.0248 0.0129793 0.00232077 -8.57961e-005 -0.0071 -2.3249 -0.0142 -6.22132e-006 -5.35578e-007 5.47952e-006 -0.6113 -8.7231 -2.0637 -3.57812e-015 0 1.59028e-015 0.1927 -3.8059 -0.2383 0.0163312 0.00303493 -0.000867997 0.1091 -2.1688 -0.1362 -1.03368e-014 0 -0 0.6151 -8.0947 -3.564 -3.57812e-015 0 1.59028e-015 0.4882 -2.341 -0.6462 0.0145819 0.00367834 -0.00326348 0.3574 -1.7166 -0.4742 2.64834e-031 -9.54166e-015 1.59028e-015 1.4199 -1.8761 1.4221 -3.57812e-015 0 1.59028e-015 1.1472 -3.4929 2.6336 -2.78299e-015 3.18055e-015 7.95139e-015 0.8229 -2.3 1.6571 1.19271e-015 3.18055e-015 1.59028e-015 -9.412 3.9771 -0.7758 -35.6061 -50.0847 -84.762 -0.7531 -40.938 -1.77636e-015 -174.835 71.7037 172.362 5.32907e-015 -40.1986 7.10543e-015 3.45467 16.2914 -4.16965 1.77636e-015 -4.4182 9.239 1.57168e-006 2.58039e-007 -1.22739e-007 9.4119 3.9773 -0.7758 17.1538 -40.1732 56.4812 0.7532 -40.9383 3.55271e-015 13.0979 57.3487 -13.3269 -2.22045e-016 -40.1986 -7.10543e-015 -4.85768 15.7902 2.8595 0 -4.4182 9.239 1.05287e-005 1.16068e-006 4.81908e-006 
-8.9444 4.39015 -13.8019 -70.9173 14.8336 -55.4925 0 8.7983 -4.7612 6.27795 4.81837 5.91637 0 8.0291 0.4195 12.0942 10.2327 11.3339 -1.77636e-015 9.9351 -2.2114 12.0942 10.2327 11.3339 8.88178e-016 22.3885 -0.4656 -26.5858 11.4012 3.90956 -0.0001 12.643 3.4389 26.8186 -16.5478 -2.9911 2.2603 21.606 7.4023 43.6834 -15.986 16.7166 13.5163 -1.1332 -5.0146 62.1652 -25.1483 43.6461 -0.0995 -28.05 -0.2431 161.805 -47.111 147.473 0.0679 -23.3996 -0.1402 35.9391 9.67176 3.30159 0.7932 -9.069 2.5189 -1.02049e-005 -5.29151e-006 -3.47965e-006 -0.8272 -3.3923 0.5977 4.77083e-015 6.36111e-015 -3.18055e-015 -0.5649 -2.3158 0.4082 1.00003e-005 3.82143e-006 -3.13131e-007 0.9159 -9.2044 0.2193 -1.02049e-005 -5.29151e-006 -3.47965e-006 0.0117 -4.1944 -0.0248 -0.0128137 0.00233025 8.63595e-005 0.0071 -2.3249 -0.0142 1.59028e-015 -6.36111e-015 -1.59028e-015 0.6113 -8.7231 -2.0637 -1.02049e-005 -5.29151e-006 -3.47965e-006 -0.1927 -3.8059 -0.2383 -0.0159942 0.00298627 0.000857829 -0.1091 -2.1688 -0.1362 4.19653e-007 1.11702e-006 -9.6614e-006 -0.6151 -8.0947 -3.5641 -1.02049e-005 -5.29151e-006 -3.47965e-006 -0.4882 -2.341 -0.6462 -0.0125872 0.00312052 0.002834 -0.3575 -1.7167 -0.4742 7.98887e-006 4.18731e-006 -7.73442e-006 -1.42 -1.8761 1.4223 -1.02049e-005 -5.29151e-006 -3.47965e-006 -1.1471 -3.4929 2.6334 4.77083e-015 6.36111e-015 -3.18055e-015 -0.823 -2.3 1.6571 1.00003e-005 3.82143e-006 -3.13131e-007 -2.2603 21.606 7.4023 5.10533 -7.21321 -4.36434 -13.5187 -1.1334 -5.0155 -78.4483 -9.90378 37.0385 0.0994 -28.0499 -0.2431 10.0365 -28.152 -10.0516 -0.0679 -23.3996 -0.1402 -35.2575 -15.3991 -3.14138 -0.7932 -9.0691 2.5189 1.07344e-014 -9.54166e-015 3.18055e-015 0.8272 -3.3923 0.5977 5.96354e-015 -9.54166e-015 -0 0.565 -2.3158 0.4082 -3.97569e-016 -9.54166e-015 4.77083e-015 -0.916 -9.2044 0.2193 1.07344e-014 -9.54166e-015 3.18055e-015 -0.0117 -4.1944 -0.0248 0.0129549 0.00231203 -8.39235e-005 -0.0071 -2.3249 -0.0142 5.1684e-015 -3.18055e-015 1.59028e-015 -0.6113 -8.7231 -2.0637 1.07344e-014 -9.54166e-015 3.18055e-015 0.1927 -3.8059 -0.2383 0.0163366 0.00303387 -0.000871089 0.1091 -2.1688 -0.1362 8.31447e-006 2.00051e-007 9.16003e-007 0.6151 -8.0947 -3.564 1.07344e-014 -9.54166e-015 3.18055e-015 0.4882 -2.341 -0.6462 0.0145981 0.00368246 -0.00326939 0.3574 -1.7166 -0.4742 -5.96354e-015 -3.18055e-015 1.59028e-015 1.4199 -1.8761 1.4221 1.07344e-014 -9.54166e-015 3.18055e-015 1.1472 -3.4929 2.6336 5.96354e-015 -9.54166e-015 -0 0.8229 -2.3 1.6571 -3.97569e-016 -9.54166e-015 4.77083e-015 -9.412 3.9771 -0.7758 -35.6061 -50.0847 -84.762 -0.7531 -40.938 -1.77636e-015 -174.835 71.7037 172.362 5.32907e-015 -40.1986 7.10543e-015 3.45467 16.2914 -4.16965 -1.77636e-015 -4.4182 9.239 1.57168e-006 1.35028e-006 -1.22739e-007 9.4119 3.9773 -0.7758 17.1538 -40.1732 56.4812 0.7532 -40.9383 3.55271e-015 13.0979 57.3487 -13.3269 -2.22045e-016 -40.1986 -7.10543e-015 -4.85768 15.7902 2.8595 0 -4.4182 9.239 1.05287e-005 1.16068e-006 4.81908e-006 
-8.9444 4.39015 -13.8019 -70.9173 14.8336 -55.4925 0 8.7983 -4.7612 6.27795 4.81837 5.91637 0 8.0291 0.4195 12.0942 10.2327 11.3339 -1.77636e-015 9.9351 -2.2114 12.0942 10.2327 11.3339 8.88178e-016 22.3885 -0.4656 -26.5858 11.4012 3.90956 -0.0001 12.643 3.4389 26.7526 -16.3627 -3.28704 2.2603 21.606 7.4023 43.6834 -15.986 16.7166 13.5163 -1.1332 -5.0146 62.1652 -25.1483 43.6461 -0.0995 -28.05 -0.2431 161.805 -47.111 147.473 0.0679 -23.3996 -0.1402 35.9391 9.67176 3.30159 0.7932 -9.069 2.5189 -1.02049e-005 -5.29151e-006 -3.47965e-006 -0.8272 -3.3923 0.5977 4.77083e-015 6.36111e-015 -3.18055e-015 -0.5649 -2.3158 0.4082 1.00003e-005 3.82143e-006 -3.13131e-007 0.9159 -9.2044 0.2193 -1.02049e-005 -5.29151e-006 -3.47965e-006 0.0117 -4.1944 -0.0248 -0.0128137 0.00233025 8.63595e-005 0.0071 -2.3249 -0.0142 1.59028e-015 -6.36111e-015 -1.59028e-015 0.6113 -8.7231 -2.0637 -1.02049e-005 -5.29151e-006 -3.47965e-006 -0.1927 -3.8059 -0.2383 -0.0159942 0.00298627 0.000857829 -0.1091 -2.1688 -0.1362 4.19653e-007 1.11702e-006 -9.6614e-006 -0.6151 -8.0947 -3.5641 -1.02049e-005 -5.29151e-006 -3.47965e-006 -0.4882 -2.341 -0.6462 -0.0125872 0.00312052 0.002834 -0.3575 -1.7167 -0.4742 7.98887e-006 4.18731e-006 -7.73442e-006 -1.42 -1.8761 1.4223 -1.02049e-005 -5.29151e-006 -3.47965e-006 -1.1471 -3.4929 2.6334 4.77083e-015 6.36111e-015 -3.18055e-015 -0.823 -2.3 1.6571 1.00003e-005 3.82143e-006 -3.13131e-007 -2.2603 21.606 7.4023 5.10533 -7.21321 -4.36434 -13.5187 -1.1334 -5.0155 -78.5708 -9.72874 36.761 0.0994 -28.0499 -0.2431 10.2675 -28.8009 -9.89313 -0.0679 -23.3996 -0.1402 -34.8912 -15.403 -2.65652 -0.7932 -9.0691 2.5189 1.88831e-006 2.91287e-006 1.86284e-006 0.8272 -3.3923 0.5977 2.38542e-015 3.18055e-015 1.59028e-015 0.565 -2.3158 0.4082 4.38408e-006 1.47373e-006 -1.63794e-006 -0.916 -9.2044 0.2193 1.88831e-006 2.91287e-006 1.86284e-006 -0.0117 -4.1944 -0.0248 0.0129571 0.00231987 -9.10183e-005 -0.0071 -2.3249 -0.0142 -1.24733e-006 8.8307e-007 1.75033e-006 -0.6113 -8.7231 -2.0637 1.88831e-006 2.91287e-006 1.86284e-006 0.1927 -3.8059 -0.2383 0.0163712 0.00304169 -0.000874569 0.1091 -2.1688 -0.1362 -5.32159e-007 1.94958e-006 -1.60377e-006 0.6151 -8.0947 -3.564 1.88831e-006 2.91287e-006 1.86284e-006 0.4882 -2.341 -0.6462 0.014613 0.00368525 -0.00326782 0.3574 -1.7166 -0.4742 1.36838e-005 -1.83382e-007 -3.30899e-006 1.4199 -1.8761 1.4221 1.88831e-006 2.91287e-006 1.86284e-006 1.1472 -3.4929 2.6336 2.38542e-015 3.18055e-015 1.59028e-015 0.8229 -2.3 1.6571 4.38408e-006 1.47373e-006 -1.63794e-006 -9.412 3.9771 -0.7758 -35.6061 -50.0847 -84.762 -0.7531 -40.938 -1.77636e-015 -174.835 71.7037 172.362 5.32907e-015 -40.1986 7.10543e-015 3.45467 16.2914 -4.16965 -1.77636e-015 -4.4182 9.239 1.57168e-006 1.35028e-006 -1.22739e-007 9.4119 3.9773 -0.7758 17.1538 -40.1732 56.4812 0.7532 -40.9383 3.55271e-015 13.0979 57.3487 -13.3269 -2.22045e-016 -40.1986 -7.10543e-015 -4.85768 15.7902 2.8595 0 -4.4182 9.239 1.05287e-005 1.16068e-006 4.81908e-006 
